<?xml version="1.0" encoding="utf-8"?>
<!-- Generator: Adobe Illustrator 25.0.1, SVG Export Plug-In . SVG Version: 6.00 Build 0)  -->
<svg version="1.1" id="Layer_1" xmlns="http://www.w3.org/2000/svg" xmlns:xlink="http://www.w3.org/1999/xlink" x="0px" y="0px"
	 viewBox="0 0 320 320" style="enable-background:new 0 0 320 320;" xml:space="preserve">
<style type="text/css">
	.st0{fill:#FADB4F;}
	.st1{fill:#EB3D7D;}
	.st2{fill:#0066CC;}
	.st3{fill:#00ABDB;}
	.st4{fill:#82C7E5;}
	.st5{fill:#2E95CE;}
</style>
<g>
	
		<rect x="114.3" y="32.1" transform="matrix(0.9007 -0.4345 0.4345 0.9007 -38.7691 62.9321)" class="st0" width="8" height="168.4"/>
</g>
<g>
	
		<rect x="142.6" y="146.8" transform="matrix(0.8374 -0.5465 0.5465 0.8374 -46.9983 143.6718)" class="st0" width="150.9" height="8"/>
</g>
<g>
	
		<rect x="209.4" y="164.8" transform="matrix(0.6436 -0.7654 0.7654 0.6436 -108.6344 249.293)" class="st0" width="8" height="152.9"/>
</g>
<g>
	
		<rect x="85" y="118.5" transform="matrix(0.1104 -0.9939 0.9939 0.1104 -104.4692 252.7987)" class="st0" width="8" height="132.5"/>
</g>
<g>
	<rect x="43.1" y="243.9" transform="matrix(0.6 -0.8 0.8 0.6 -153.1787 189.5077)" class="st0" width="139.7" height="8"/>
</g>
<g>
	<g>
		<circle class="st1" cx="277.8" cy="111" r="40.5"/>
	</g>
</g>
<g>
	<g>
		<circle class="st1" cx="269.4" cy="288.8" r="28.6"/>
	</g>
</g>
<g>
	<g>
		<circle class="st1" cx="76.6" cy="34" r="33"/>
	</g>
</g>
<g>
	<g>
		<circle class="st1" cx="22.8" cy="176.6" r="18.8"/>
	</g>
</g>
<g>
	<g>
		<circle class="st1" cx="71.2" cy="303.5" r="12.5"/>
	</g>
</g>
<g>
	<g>
		<g>
			<path class="st2" d="M190.7,146.1h-67.3c-21.5,0-39,17.4-39,39v60c0,21.5,17.4,39,39,39h67.3c21.5,0,39-17.4,39-39v-60
				C229.6,163.5,212.2,146.1,190.7,146.1z"/>
		</g>
	</g>
	<g>
		<g>
			<path class="st3" d="M190.7,130.3h-67.3c-21.5,0-39,17.4-39,39v60c0,21.5,17.4,39,39,39h67.3c21.5,0,39-17.4,39-39v-60
				C229.6,147.8,212.2,130.3,190.7,130.3z"/>
		</g>
	</g>
	<g>
		<g>
			<path class="st4" d="M169.6,233.6c11.9,0.1,21.6-9.5,21.6-21.4v-21.1c0-15,0.1-117,0.1-129.9V40.2c-0.1-11.9-9.9-21.5-21.7-21.4
				h-25.1c-11.9-0.1-21.7,9.5-21.7,21.4v21.1c0,12.9,0.1,114.8,0.1,129.9v21.1c0.1,11.9,9.7,21.5,21.6,21.4H169.6z"/>
		</g>
	</g>
	<g>
		<g>
			<g>
				<circle class="st3" cx="160.7" cy="38.1" r="1.2"/>
			</g>
		</g>
		<g>
			<g>
				<circle class="st3" cx="157" cy="38.1" r="1.2"/>
			</g>
		</g>
		<g>
			<g>
				<circle class="st3" cx="153.3" cy="38.1" r="1.2"/>
			</g>
		</g>
	</g>
	<g>
		<g>
			<g>
				<g>
					<circle class="st3" cx="160.7" cy="214.5" r="1.2"/>
				</g>
			</g>
			<g>
				<g>
					<circle class="st3" cx="157" cy="214.5" r="1.2"/>
				</g>
			</g>
			<g>
				<g>
					<circle class="st3" cx="153.4" cy="214.5" r="1.2"/>
				</g>
			</g>
		</g>
		<g>
			<g>
				<path class="st3" d="M161.3,221.2h-8.2c-0.5,0-0.9-0.4-0.9-0.9c0-0.5,0.4-0.9,0.9-0.9h8.2c2.1,0,3.8-1.7,3.8-3.8
					c0-0.5,0.4-0.9,0.9-0.9c0.5,0,0.9,0.4,0.9,0.9C167,218.6,164.4,221.2,161.3,221.2z"/>
			</g>
		</g>
		<g>
			<g>
				<path class="st3" d="M147.9,215c-0.5,0-0.9-0.4-0.9-0.9c0-3.1,2.5-5.7,5.7-5.7h8.2c0.5,0,0.9,0.4,0.9,0.9c0,0.5-0.4,0.9-0.9,0.9
					h-8.2c-2.1,0-3.8,1.7-3.8,3.8C148.9,214.6,148.5,215,147.9,215z"/>
			</g>
		</g>
	</g>
	<g>
		<g>
			<path class="st3" d="M141.8,96.1h30.3c7.4,0,13.5-6,13.5-13.5V70.5c0-7.4-6-13.5-13.5-13.5h-30.3c-7.4,0-13.5,6-13.5,13.5v12.2
				C128.4,90.1,134.4,96.1,141.8,96.1z"/>
		</g>
	</g>
	<g>
		<g>
			<polygon class="st5" points="122.8,212.2 116,131 123.4,130.3 			"/>
		</g>
	</g>
	<g>
		<g>
			<polygon class="st5" points="191.7,212.2 198.5,131 191.1,130.3 			"/>
		</g>
	</g>
	<g>
		<g>
			<g>
				<path class="st5" d="M110.3,287.4h-1.1c-1.7,0-3.2-1.2-3.6-2.8l-1.6-6.5c-0.6-2.4,1.2-4.6,3.6-4.6h4.4c2.4,0,4.2,2.3,3.6,4.6
					l-1.6,6.5C113.5,286.2,112,287.4,110.3,287.4z"/>
			</g>
		</g>
		<g>
			<g>
				<path class="st5" d="M204.8,287.4h-1.1c-1.7,0-3.2-1.2-3.6-2.8l-1.6-6.5c-0.6-2.4,1.2-4.6,3.6-4.6h4.4c2.4,0,4.2,2.3,3.6,4.6
					l-1.6,6.5C208,286.2,206.5,287.4,204.8,287.4z"/>
			</g>
		</g>
	</g>
	<g>
		<g>
			<g>
				<path class="st3" d="M157,50c-1.5,0-3-0.3-4.4-0.9c-0.4-0.2-0.6-0.6-0.4-1c0.2-0.4,0.6-0.6,1-0.4c1.2,0.5,2.5,0.7,3.9,0.7
					c5.7,0,10.3-4.6,10.3-10.3c0-1.3-0.2-2.5-0.7-3.7c-0.2-0.4,0-0.9,0.4-1c0.4-0.2,0.9,0,1,0.4c0.5,1.4,0.8,2.8,0.8,4.3
					C168.9,44.7,163.6,50,157,50z"/>
			</g>
		</g>
		<g>
			<g>
				<path class="st3" d="M146.6,42.8c-0.3,0-0.6-0.2-0.7-0.5c-0.5-1.3-0.7-2.7-0.7-4.1c0-6.6,5.3-11.9,11.9-11.9
					c1.4,0,2.8,0.2,4.1,0.7c0.4,0.2,0.6,0.6,0.5,1c-0.2,0.4-0.6,0.6-1,0.5c-1.1-0.4-2.4-0.6-3.6-0.6c-5.7,0-10.3,4.6-10.3,10.3
					c0,1.2,0.2,2.4,0.6,3.6c0.2,0.4-0.1,0.9-0.5,1C146.8,42.8,146.7,42.8,146.6,42.8z"/>
			</g>
		</g>
	</g>
	<g>
		<g>
			<g>
				<path class="st5" d="M140.1,251.8h-7.9c-1.2,0-2.2-1-2.2-2.2v0c0-1.2,1-2.2,2.2-2.2h7.9c1.2,0,2.2,1,2.2,2.2v0
					C142.3,250.8,141.3,251.8,140.1,251.8z"/>
			</g>
		</g>
		<g>
			<g>
				<path class="st5" d="M181.7,251.8h-7.9c-1.2,0-2.2-1-2.2-2.2v0c0-1.2,1-2.2,2.2-2.2h7.9c1.2,0,2.2,1,2.2,2.2v0
					C183.9,250.8,182.9,251.8,181.7,251.8z"/>
			</g>
		</g>
	</g>
	<g>
		<g>
			<g>
				<g>
					<path class="st2" d="M140.5,133.7h-2.4c-2.9,0-5.3-2.4-5.3-5.3v-0.1c0-2.9,2.4-5.3,5.3-5.3h2.4c2.9,0,5.3,2.4,5.3,5.3v0.1
						C145.8,131.4,143.4,133.7,140.5,133.7z"/>
				</g>
			</g>
			<g>
				<g>
					<path class="st2" d="M158.3,133.7h-2.4c-2.9,0-5.3-2.4-5.3-5.3v-0.1c0-2.9,2.4-5.3,5.3-5.3h2.4c2.9,0,5.3,2.4,5.3,5.3v0.1
						C163.6,131.4,161.2,133.7,158.3,133.7z"/>
				</g>
			</g>
			<g>
				<g>
					<path class="st2" d="M176,133.7h-2.4c-2.9,0-5.3-2.4-5.3-5.3v-0.1c0-2.9,2.4-5.3,5.3-5.3h2.4c2.9,0,5.3,2.4,5.3,5.3v0.1
						C181.4,131.4,179,133.7,176,133.7z"/>
				</g>
			</g>
		</g>
		<g>
			<g>
				<g>
					<path class="st2" d="M140.5,148.5h-2.4c-2.9,0-5.3-2.4-5.3-5.3v-0.1c0-2.9,2.4-5.3,5.3-5.3h2.4c2.9,0,5.3,2.4,5.3,5.3v0.1
						C145.8,146.1,143.4,148.5,140.5,148.5z"/>
				</g>
			</g>
			<g>
				<g>
					<path class="st2" d="M158.3,148.5h-2.4c-2.9,0-5.3-2.4-5.3-5.3v-0.1c0-2.9,2.4-5.3,5.3-5.3h2.4c2.9,0,5.3,2.4,5.3,5.3v0.1
						C163.6,146.1,161.2,148.5,158.3,148.5z"/>
				</g>
			</g>
			<g>
				<g>
					<path class="st2" d="M176,148.5h-2.4c-2.9,0-5.3-2.4-5.3-5.3v-0.1c0-2.9,2.4-5.3,5.3-5.3h2.4c2.9,0,5.3,2.4,5.3,5.3v0.1
						C181.4,146.1,179,148.5,176,148.5z"/>
				</g>
			</g>
		</g>
		<g>
			<g>
				<g>
					<path class="st2" d="M140.5,163.3h-2.4c-2.9,0-5.3-2.4-5.3-5.3v-0.1c0-2.9,2.4-5.3,5.3-5.3h2.4c2.9,0,5.3,2.4,5.3,5.3v0.1
						C145.8,160.9,143.4,163.3,140.5,163.3z"/>
				</g>
			</g>
			<g>
				<g>
					<path class="st2" d="M158.3,163.3h-2.4c-2.9,0-5.3-2.4-5.3-5.3v-0.1c0-2.9,2.4-5.3,5.3-5.3h2.4c2.9,0,5.3,2.4,5.3,5.3v0.1
						C163.6,160.9,161.2,163.3,158.3,163.3z"/>
				</g>
			</g>
			<g>
				<g>
					<path class="st2" d="M176,163.3h-2.4c-2.9,0-5.3-2.4-5.3-5.3v-0.1c0-2.9,2.4-5.3,5.3-5.3h2.4c2.9,0,5.3,2.4,5.3,5.3v0.1
						C181.4,160.9,179,163.3,176,163.3z"/>
				</g>
			</g>
		</g>
		<g>
			<g>
				<g>
					<path class="st2" d="M140.5,178.1h-2.4c-2.9,0-5.3-2.4-5.3-5.3v-0.1c0-2.9,2.4-5.3,5.3-5.3h2.4c2.9,0,5.3,2.4,5.3,5.3v0.1
						C145.8,175.7,143.4,178.1,140.5,178.1z"/>
				</g>
			</g>
			<g>
				<g>
					<path class="st2" d="M158.3,178.1h-2.4c-2.9,0-5.3-2.4-5.3-5.3v-0.1c0-2.9,2.4-5.3,5.3-5.3h2.4c2.9,0,5.3,2.4,5.3,5.3v0.1
						C163.6,175.7,161.2,178.1,158.3,178.1z"/>
				</g>
			</g>
			<g>
				<g>
					<path class="st2" d="M176,178.1h-2.4c-2.9,0-5.3-2.4-5.3-5.3v-0.1c0-2.9,2.4-5.3,5.3-5.3h2.4c2.9,0,5.3,2.4,5.3,5.3v0.1
						C181.4,175.7,179,178.1,176,178.1z"/>
				</g>
			</g>
		</g>
		<g>
			<g>
				<g>
					<path class="st2" d="M140.5,192.9h-2.4c-2.9,0-5.3-2.4-5.3-5.3v-0.1c0-2.9,2.4-5.3,5.3-5.3h2.4c2.9,0,5.3,2.4,5.3,5.3v0.1
						C145.8,190.5,143.4,192.9,140.5,192.9z"/>
				</g>
			</g>
			<g>
				<g>
					<path class="st2" d="M158.3,192.9h-2.4c-2.9,0-5.3-2.4-5.3-5.3v-0.1c0-2.9,2.4-5.3,5.3-5.3h2.4c2.9,0,5.3,2.4,5.3,5.3v0.1
						C163.6,190.5,161.2,192.9,158.3,192.9z"/>
				</g>
			</g>
			<g>
				<g>
					<path class="st2" d="M176,192.9h-2.4c-2.9,0-5.3-2.4-5.3-5.3v-0.1c0-2.9,2.4-5.3,5.3-5.3h2.4c2.9,0,5.3,2.4,5.3,5.3v0.1
						C181.4,190.5,179,192.9,176,192.9z"/>
				</g>
			</g>
		</g>
		<g>
			<g>
				<path class="st2" d="M161.3,118.2h-8.4c-4,0-7.2-3.2-7.2-7.2v-0.1c0-4,3.2-7.2,7.2-7.2h8.4c4,0,7.2,3.2,7.2,7.2v0.1
					C168.5,115,165.3,118.2,161.3,118.2z"/>
			</g>
		</g>
		<g>
			<g>
				<path class="st2" d="M139.6,109.1h-4.1c-1.5,0-2.7-1.2-2.7-2.7v0c0-1.5,1.2-2.7,2.7-2.7h4.1c1.5,0,2.7,1.2,2.7,2.7v0
					C142.3,107.9,141.1,109.1,139.6,109.1z"/>
			</g>
		</g>
		<g>
			<g>
				<path class="st2" d="M139.6,117.7h-4.1c-1.5,0-2.7-1.2-2.7-2.7v0c0-1.5,1.2-2.7,2.7-2.7h4.1c1.5,0,2.7,1.2,2.7,2.7v0
					C142.3,116.5,141.1,117.7,139.6,117.7z"/>
			</g>
		</g>
		<g>
			<g>
				<path class="st2" d="M178.5,109.1h-4.1c-1.5,0-2.7-1.2-2.7-2.7v0c0-1.5,1.2-2.7,2.7-2.7h4.1c1.5,0,2.7,1.2,2.7,2.7v0
					C181.3,107.9,180,109.1,178.5,109.1z"/>
			</g>
		</g>
		<g>
			<g>
				<path class="st2" d="M178.5,117.7h-4.1c-1.5,0-2.7-1.2-2.7-2.7v0c0-1.5,1.2-2.7,2.7-2.7h4.1c1.5,0,2.7,1.2,2.7,2.7v0
					C181.3,116.5,180,117.7,178.5,117.7z"/>
			</g>
		</g>
	</g>
	<g>
		<g>
			<g>
				<g>
					<path class="st3" d="M140.5,132h-2.4c-2.9,0-5.3-2.4-5.3-5.3v-0.1c0-2.9,2.4-5.3,5.3-5.3h2.4c2.9,0,5.3,2.4,5.3,5.3v0.1
						C145.8,129.6,143.4,132,140.5,132z"/>
				</g>
			</g>
			<g>
				<g>
					<path class="st3" d="M158.3,132h-2.4c-2.9,0-5.3-2.4-5.3-5.3v-0.1c0-2.9,2.4-5.3,5.3-5.3h2.4c2.9,0,5.3,2.4,5.3,5.3v0.1
						C163.6,129.6,161.2,132,158.3,132z"/>
				</g>
			</g>
			<g>
				<g>
					<path class="st3" d="M176,132h-2.4c-2.9,0-5.3-2.4-5.3-5.3v-0.1c0-2.9,2.4-5.3,5.3-5.3h2.4c2.9,0,5.3,2.4,5.3,5.3v0.1
						C181.4,129.6,179,132,176,132z"/>
				</g>
			</g>
		</g>
		<g>
			<g>
				<g>
					<path class="st3" d="M140.5,146.8h-2.4c-2.9,0-5.3-2.4-5.3-5.3v-0.1c0-2.9,2.4-5.3,5.3-5.3h2.4c2.9,0,5.3,2.4,5.3,5.3v0.1
						C145.8,144.4,143.4,146.8,140.5,146.8z"/>
				</g>
			</g>
			<g>
				<g>
					<path class="st3" d="M158.3,146.8h-2.4c-2.9,0-5.3-2.4-5.3-5.3v-0.1c0-2.9,2.4-5.3,5.3-5.3h2.4c2.9,0,5.3,2.4,5.3,5.3v0.1
						C163.6,144.4,161.2,146.8,158.3,146.8z"/>
				</g>
			</g>
			<g>
				<g>
					<path class="st3" d="M176,146.8h-2.4c-2.9,0-5.3-2.4-5.3-5.3v-0.1c0-2.9,2.4-5.3,5.3-5.3h2.4c2.9,0,5.3,2.4,5.3,5.3v0.1
						C181.4,144.4,179,146.8,176,146.8z"/>
				</g>
			</g>
		</g>
		<g>
			<g>
				<g>
					<path class="st3" d="M140.5,161.6h-2.4c-2.9,0-5.3-2.4-5.3-5.3v-0.1c0-2.9,2.4-5.3,5.3-5.3h2.4c2.9,0,5.3,2.4,5.3,5.3v0.1
						C145.8,159.2,143.4,161.6,140.5,161.6z"/>
				</g>
			</g>
			<g>
				<g>
					<path class="st3" d="M158.3,161.6h-2.4c-2.9,0-5.3-2.4-5.3-5.3v-0.1c0-2.9,2.4-5.3,5.3-5.3h2.4c2.9,0,5.3,2.4,5.3,5.3v0.1
						C163.6,159.2,161.2,161.6,158.3,161.6z"/>
				</g>
			</g>
			<g>
				<g>
					<path class="st3" d="M176,161.6h-2.4c-2.9,0-5.3-2.4-5.3-5.3v-0.1c0-2.9,2.4-5.3,5.3-5.3h2.4c2.9,0,5.3,2.4,5.3,5.3v0.1
						C181.4,159.2,179,161.6,176,161.6z"/>
				</g>
			</g>
		</g>
		<g>
			<g>
				<g>
					<path class="st3" d="M140.5,176.3h-2.4c-2.9,0-5.3-2.4-5.3-5.3v-0.1c0-2.9,2.4-5.3,5.3-5.3h2.4c2.9,0,5.3,2.4,5.3,5.3v0.1
						C145.8,174,143.4,176.3,140.5,176.3z"/>
				</g>
			</g>
			<g>
				<g>
					<path class="st3" d="M158.3,176.3h-2.4c-2.9,0-5.3-2.4-5.3-5.3v-0.1c0-2.9,2.4-5.3,5.3-5.3h2.4c2.9,0,5.3,2.4,5.3,5.3v0.1
						C163.6,174,161.2,176.3,158.3,176.3z"/>
				</g>
			</g>
			<g>
				<g>
					<path class="st3" d="M176,176.3h-2.4c-2.9,0-5.3-2.4-5.3-5.3v-0.1c0-2.9,2.4-5.3,5.3-5.3h2.4c2.9,0,5.3,2.4,5.3,5.3v0.1
						C181.4,174,179,176.3,176,176.3z"/>
				</g>
			</g>
		</g>
		<g>
			<g>
				<g>
					<path class="st3" d="M140.5,191.1h-2.4c-2.9,0-5.3-2.4-5.3-5.3v-0.1c0-2.9,2.4-5.3,5.3-5.3h2.4c2.9,0,5.3,2.4,5.3,5.3v0.1
						C145.8,188.7,143.4,191.1,140.5,191.1z"/>
				</g>
			</g>
			<g>
				<g>
					<path class="st3" d="M158.3,191.1h-2.4c-2.9,0-5.3-2.4-5.3-5.3v-0.1c0-2.9,2.4-5.3,5.3-5.3h2.4c2.9,0,5.3,2.4,5.3,5.3v0.1
						C163.6,188.7,161.2,191.1,158.3,191.1z"/>
				</g>
			</g>
			<g>
				<g>
					<path class="st3" d="M176,191.1h-2.4c-2.9,0-5.3-2.4-5.3-5.3v-0.1c0-2.9,2.4-5.3,5.3-5.3h2.4c2.9,0,5.3,2.4,5.3,5.3v0.1
						C181.4,188.7,179,191.1,176,191.1z"/>
				</g>
			</g>
		</g>
		<g>
			<g>
				<path class="st3" d="M161.3,116.4h-8.4c-4,0-7.2-3.2-7.2-7.2v-0.1c0-4,3.2-7.2,7.2-7.2h8.4c4,0,7.2,3.2,7.2,7.2v0.1
					C168.5,113.2,165.3,116.4,161.3,116.4z"/>
			</g>
		</g>
		<g>
			<g>
				<path class="st3" d="M139.6,107.4h-4.1c-1.5,0-2.7-1.2-2.7-2.7v0c0-1.5,1.2-2.7,2.7-2.7h4.1c1.5,0,2.7,1.2,2.7,2.7v0
					C142.3,106.2,141.1,107.4,139.6,107.4z"/>
			</g>
		</g>
		<g>
			<g>
				<path class="st3" d="M139.6,116h-4.1c-1.5,0-2.7-1.2-2.7-2.7v0c0-1.5,1.2-2.7,2.7-2.7h4.1c1.5,0,2.7,1.2,2.7,2.7v0
					C142.3,114.7,141.1,116,139.6,116z"/>
			</g>
		</g>
		<g>
			<g>
				<path class="st3" d="M178.5,107.4h-4.1c-1.5,0-2.7-1.2-2.7-2.7v0c0-1.5,1.2-2.7,2.7-2.7h4.1c1.5,0,2.7,1.2,2.7,2.7v0
					C181.3,106.2,180,107.4,178.5,107.4z"/>
			</g>
		</g>
		<g>
			<g>
				<path class="st3" d="M178.5,116h-4.1c-1.5,0-2.7-1.2-2.7-2.7v0c0-1.5,1.2-2.7,2.7-2.7h4.1c1.5,0,2.7,1.2,2.7,2.7v0
					C181.3,114.7,180,116,178.5,116z"/>
			</g>
		</g>
	</g>
</g>
</svg>
